<svg xmlns="http://www.w3.org/2000/svg" width="108" height="70"><path fill="#0A68AE" d="M65.625 35.066c4.521-3.884 9.83-6.701 15.25-9.123-7.842 7.023-13.838 15.72-20.1 24.095-5.029 6.305-11.087 11.997-18.291 15.72C36.037 68.973 28.3 69.61 21.5 67.14c-7.396-2.583-13.28-8.319-17.269-14.935 4.72 3.005 10.214 4.825 15.838 4.776 3.425.074 6.801-.576 10.146-1.245-2.552-1.184-4.818-3.308-5.327-6.176-1.028-4.243 1.958-8.87 6.213-9.743 4.082-1.047 8.598 1.617 9.731 5.655.755 2.236.148 4.603-.75 6.702 9.346-4.36 17.615-10.585 25.543-17.108z"/><path fill="#29ABE2" d="M42.528 16.436c2.646-.354 5.16-1.858 6.405-4.268 2.118-3.667.756-8.796-2.893-10.939C42.429-1.13 37.133.028 34.841 3.682c-2.626 3.729-1.307 9.335 2.62 11.614-2.731-.143-5.519.284-7.966 1.542-7.166 3.604-12.4 10.981-13.081 19.021-.409 3.68.606 7.297 2.031 10.654.087-2.521.341-5.147 1.753-7.315 2.8-4.801 8.703-7.123 14.098-6.46 7.123.762 13.187 5.178 18.154 10.064 4.386-3.184 8.622-6.56 12.834-9.972-6.15-7.098-13.619-13.633-22.756-16.394zm34.395 30.628c-4.188 3.202-8.324 6.479-12.654 9.483 1.771 1.536 3.184 4.348 5.909 4.025 5.525.112 10.579-2.787 14.481-6.484-2.966-1.883-5.481-4.354-7.736-7.024z"/><path fill="#0A68AE" d="M87.497 8.005c2.057-5.048 9.372-6.484 13.175-2.57 4.193 3.667 2.985 11.348-2.255 13.397 3.884.78 6.572 4.2 7.601 7.866 1.914 6.69.78 13.943-1.821 20.292-2.855 6.9-8.183 13.168-15.423 15.597-5.674 1.988-11.887 1.177-17.461-.737 6.862-.18 12.988-4.23 17.113-9.502 2.466-3.171 4.59-6.788 5.271-10.796.254-1.61.186-3.778-1.475-4.633-1.616-.713-3.4.019-4.881.719-3.301 1.69-6.095 4.181-9 6.454-8.504 6.603-16.965 13.429-26.677 18.223 3.647-3.277 7.327-6.566 10.282-10.505 6.621-8.753 13.112-17.709 21.158-25.241 3.128-2.83 6.461-5.667 10.523-7.023-5.145-.77-8.46-6.833-6.13-11.541zm-83.781.446c3.674-2.552 9.248-1.313 11.503 2.546 1.579 2.359 1.424 5.37.538 7.959 4.014-2.354 8.542-3.971 13.219-4.168-5.531 2.812-10.184 7.42-12.617 13.174-2.726 6.064-2.862 13.41.347 19.325 1.642 3.222 4.261 5.792 7.005 8.09-6.455.424-13.175-1.107-18.604-4.667-1.696-1.113-2.941-2.807-3.407-4.782-1.891-8.019 2.099-16.738 7.933-22.313-3.005.154-6.231-.787-8.016-3.352-2.843-3.599-1.809-9.414 2.099-11.812z"/></svg>